<svg xmlns="http://www.w3.org/2000/svg" viewBox="0 0 512 512">
  <style>
    path {
      fill: #000;
    }
    @media (prefers-color-scheme: dark) {
      path {
        fill: #fff;
      }
    }
  </style>
  <path d="M240.3 55.4a55.5 55.5 0 0 0-26.9 16A52 52 0 0 0 198.1 96c-7.7 23.2-.4 47.7 24.9 83.5a351.5 351.5 0 0 1 28 42.9l4.7 9.1 3.3-7.3c3.7-8.1 14.1-24.4 28-43.6 21.9-30.4 30.2-50.9 28.6-71.1a60.3 60.3 0 0 0-44.8-54 89.3 89.3 0 0 0-30.5-.1zM128 125.9a60.9 60.9 0 0 0-50.4 39.5c-3 8.8-4 20.1-2.7 29.5 4.2 29.7 26.6 49.1 61.5 53.2 6 .7 17.8.4 45.3-1.1 36.4-2.1 47.1-1.9 53.9.7 1.1.4.1-1.4-2.7-4.5-5.6-6.2-11.5-17.4-19.9-37.7-14.5-35.1-31.7-61.1-48-72.3-9-6.2-24-9.1-37-7.3zm234.5.7c-17.9 4-30.8 16.1-47.8 44.9-5.6 9.7-11.1 21-17.1 36-7.6 18.5-13 28.6-19.1 35.4-3 3.3-4.2 5.2-3 4.7 6.8-2.5 17.8-2.7 53-.7 46.8 2.7 56.7 1.7 74.5-7.1a72.5 72.5 0 0 0 27.7-26.3A66.5 66.5 0 0 0 434 166a61.6 61.6 0 0 0-40.8-37.9 67.8 67.8 0 0 0-30.7-1.5zm-232 138.9c-26.8 5-47.3 22-54.1 45a81.2 81.2 0 0 0-.5 31.5c2.1 8.8 7.1 18 13.6 24.9a59.7 59.7 0 0 0 43 19.8c24.3 1.3 39-7.5 56.3-33.6a286.4 286.4 0 0 0 26.2-50.6c7.1-17.3 12.5-27.2 18.4-33.4 3.7-3.9 3.9-4.3 1.6-3.7-14.8 3.9-13.6 3.9-49.7 1.2-37.8-2.9-44.6-3-54.8-1.1zm194 1c-29.1 2.5-35.9 2.5-44.3-.1-2.6-.7-4.8-1.1-5.1-.8-.3.2 1.1 2.1 3.1 4.2a82.5 82.5 0 0 1 15.2 25.6 312.1 312.1 0 0 0 20.6 44.1c16.9 29.3 31.1 42.9 48.8 46.6 8.7 1.8 24.2.7 33-2.4a59.4 59.4 0 0 0 40.2-44.8c1.6-9.5.8-22.7-2-30.8a65.7 65.7 0 0 0-37-37.4c-17-7-30-7.7-72.5-4.2zm-70.4 18.2c-2.9 8.3-10.5 20.3-28.2 44.8a204.5 204.5 0 0 0-20.8 33.2c-9.1 18.1-11.7 32.2-8.7 47.1a56.5 56.5 0 0 0 28.1 39.9 52.6 52.6 0 0 0 30.5 7.8c16.3 0 26.7-3.3 38.1-12.1a58.6 58.6 0 0 0 20.5-29.4 71.2 71.2 0 0 0-.5-35.5c-5.6-16.3-10.6-25.2-27.1-48.5a2258 2258 0 0 1-15.8-22.7 198.4 198.4 0 0 1-13.8-26.1c-.9-2.2-1-2.2-2.3 1.5z" />
</svg>
